<svg xmlns="http://www.w3.org/2000/svg" xmlns:xlink="http://www.w3.org/1999/xlink" width="1024" zoomAndPan="magnify" viewBox="0 0 768 767.999994" height="1024" preserveAspectRatio="xMidYMid meet" version="1.0"><defs><clipPath id="21466c8416"><path d="M 16.222656 16.222656 L 752.722656 16.222656 L 752.722656 752.722656 L 16.222656 752.722656 Z M 16.222656 16.222656 " clip-rule="nonzero"/></clipPath><clipPath id="ccb4bf2bc9"><path d="M 111.035156 258.09375 L 658 258.09375 L 658 510.84375 L 111.035156 510.84375 Z M 111.035156 258.09375 " clip-rule="nonzero"/></clipPath></defs><g clip-path="url(#21466c8416)"><path fill="#0057aa" d="M 753.039062 384.628906 C 753.039062 390.660156 752.890625 396.683594 752.59375 402.707031 C 752.296875 408.730469 751.855469 414.738281 751.265625 420.742188 C 750.671875 426.742188 749.933594 432.722656 749.050781 438.6875 C 748.164062 444.652344 747.136719 450.589844 745.960938 456.503906 C 744.78125 462.417969 743.460938 468.296875 741.996094 474.144531 C 740.53125 479.996094 738.925781 485.804688 737.175781 491.574219 C 735.425781 497.34375 733.535156 503.066406 731.503906 508.742188 C 729.472656 514.417969 727.300781 520.042969 724.996094 525.613281 C 722.6875 531.183594 720.246094 536.695312 717.667969 542.144531 C 715.089844 547.59375 712.378906 552.980469 709.535156 558.296875 C 706.695312 563.613281 703.722656 568.859375 700.625 574.03125 C 697.523438 579.199219 694.300781 584.292969 690.949219 589.304688 C 687.601562 594.320312 684.128906 599.246094 680.539062 604.089844 C 676.945312 608.933594 673.238281 613.683594 669.414062 618.34375 C 665.589844 623.007812 661.652344 627.570312 657.601562 632.039062 C 653.554688 636.503906 649.398438 640.871094 645.132812 645.132812 C 640.871094 649.398438 636.503906 653.554688 632.039062 657.601562 C 627.570312 661.652344 623.007812 665.589844 618.34375 669.414062 C 613.683594 673.238281 608.933594 676.945312 604.089844 680.539062 C 599.246094 684.128906 594.320312 687.601562 589.304688 690.949219 C 584.292969 694.300781 579.199219 697.523438 574.03125 700.625 C 568.859375 703.722656 563.613281 706.695312 558.296875 709.535156 C 552.980469 712.378906 547.59375 715.089844 542.144531 717.667969 C 536.695312 720.246094 531.183594 722.6875 525.613281 724.996094 C 520.042969 727.300781 514.417969 729.472656 508.742188 731.503906 C 503.066406 733.535156 497.34375 735.425781 491.574219 737.175781 C 485.804688 738.925781 479.996094 740.53125 474.144531 741.996094 C 468.296875 743.460938 462.417969 744.78125 456.503906 745.960938 C 450.589844 747.136719 444.652344 748.164062 438.6875 749.050781 C 432.722656 749.933594 426.742188 750.671875 420.742188 751.265625 C 414.738281 751.855469 408.730469 752.296875 402.707031 752.59375 C 396.683594 752.890625 390.660156 753.039062 384.628906 753.039062 C 378.601562 753.039062 372.574219 752.890625 366.554688 752.59375 C 360.53125 752.296875 354.519531 751.855469 348.519531 751.265625 C 342.519531 750.671875 336.539062 749.933594 330.574219 749.050781 C 324.609375 748.164062 318.671875 747.136719 312.757812 745.960938 C 306.84375 744.78125 300.960938 743.460938 295.113281 741.996094 C 289.265625 740.53125 283.457031 738.925781 277.6875 737.175781 C 271.917969 735.425781 266.195312 733.535156 260.515625 731.503906 C 254.839844 729.472656 249.214844 727.300781 243.644531 724.996094 C 238.074219 722.6875 232.566406 720.246094 227.113281 717.667969 C 221.664062 715.089844 216.28125 712.378906 210.964844 709.535156 C 205.644531 706.695312 200.402344 703.722656 195.230469 700.625 C 190.058594 697.523438 184.964844 694.300781 179.953125 690.949219 C 174.941406 687.601562 170.011719 684.128906 165.167969 680.539062 C 160.328125 676.945312 155.574219 673.238281 150.914062 669.414062 C 146.253906 665.589844 141.691406 661.652344 137.222656 657.601562 C 132.753906 653.554688 128.390625 649.398438 124.125 645.132812 C 119.863281 640.871094 115.707031 636.503906 111.65625 632.039062 C 107.609375 627.570312 103.671875 623.007812 99.847656 618.34375 C 96.023438 613.683594 92.3125 608.933594 88.722656 604.089844 C 85.128906 599.246094 81.660156 594.320312 78.308594 589.304688 C 74.960938 584.292969 71.734375 579.199219 68.636719 574.03125 C 65.535156 568.859375 62.566406 563.613281 59.722656 558.296875 C 56.878906 552.980469 54.171875 547.59375 51.59375 542.144531 C 49.015625 536.695312 46.574219 531.183594 44.265625 525.613281 C 41.957031 520.042969 39.789062 514.417969 37.757812 508.742188 C 35.726562 503.066406 33.835938 497.34375 32.085938 491.574219 C 30.335938 485.804688 28.726562 479.996094 27.261719 474.144531 C 25.796875 468.296875 24.476562 462.417969 23.300781 456.503906 C 22.125 450.589844 21.09375 444.652344 20.210938 438.6875 C 19.324219 432.722656 18.585938 426.742188 17.996094 420.742188 C 17.40625 414.738281 16.960938 408.730469 16.664062 402.707031 C 16.371094 396.683594 16.222656 390.660156 16.222656 384.628906 C 16.222656 378.601562 16.371094 372.574219 16.664062 366.554688 C 16.960938 360.53125 17.40625 354.519531 17.996094 348.519531 C 18.585938 342.519531 19.324219 336.539062 20.210938 330.574219 C 21.09375 324.609375 22.125 318.671875 23.300781 312.757812 C 24.476562 306.84375 25.796875 300.960938 27.261719 295.113281 C 28.726562 289.265625 30.335938 283.457031 32.085938 277.6875 C 33.835938 271.917969 35.726562 266.195312 37.757812 260.515625 C 39.789062 254.839844 41.957031 249.214844 44.265625 243.644531 C 46.574219 238.074219 49.015625 232.566406 51.59375 227.113281 C 54.171875 221.664062 56.878906 216.28125 59.722656 210.964844 C 62.566406 205.644531 65.535156 200.402344 68.636719 195.230469 C 71.734375 190.058594 74.960938 184.964844 78.308594 179.953125 C 81.660156 174.941406 85.128906 170.011719 88.722656 165.167969 C 92.3125 160.328125 96.023438 155.574219 99.847656 150.914062 C 103.671875 146.253906 107.609375 141.691406 111.65625 137.222656 C 115.707031 132.753906 119.863281 128.390625 124.125 124.125 C 128.390625 119.863281 132.753906 115.707031 137.222656 111.65625 C 141.691406 107.609375 146.253906 103.671875 150.914062 99.847656 C 155.574219 96.023438 160.328125 92.3125 165.167969 88.722656 C 170.011719 85.128906 174.941406 81.660156 179.953125 78.308594 C 184.964844 74.960938 190.058594 71.734375 195.230469 68.636719 C 200.402344 65.535156 205.644531 62.566406 210.964844 59.722656 C 216.28125 56.878906 221.664062 54.171875 227.113281 51.59375 C 232.566406 49.015625 238.074219 46.574219 243.644531 44.265625 C 249.214844 41.957031 254.839844 39.789062 260.515625 37.757812 C 266.195312 35.726562 271.917969 33.835938 277.6875 32.085938 C 283.457031 30.335938 289.265625 28.726562 295.113281 27.261719 C 300.960938 25.796875 306.84375 24.476562 312.757812 23.300781 C 318.671875 22.125 324.609375 21.09375 330.574219 20.210938 C 336.539062 19.324219 342.519531 18.585938 348.519531 17.996094 C 354.519531 17.40625 360.53125 16.960938 366.554688 16.664062 C 372.574219 16.371094 378.601562 16.222656 384.628906 16.222656 C 390.660156 16.222656 396.683594 16.371094 402.707031 16.664062 C 408.730469 16.960938 414.738281 17.40625 420.742188 17.996094 C 426.742188 18.585938 432.722656 19.324219 438.6875 20.210938 C 444.652344 21.09375 450.589844 22.125 456.503906 23.300781 C 462.417969 24.476562 468.296875 25.796875 474.144531 27.261719 C 479.996094 28.726562 485.804688 30.335938 491.574219 32.085938 C 497.34375 33.835938 503.066406 35.726562 508.742188 37.757812 C 514.417969 39.789062 520.042969 41.957031 525.613281 44.265625 C 531.183594 46.574219 536.695312 49.015625 542.144531 51.59375 C 547.59375 54.171875 552.980469 56.878906 558.296875 59.722656 C 563.613281 62.566406 568.859375 65.535156 574.03125 68.636719 C 579.199219 71.734375 584.292969 74.960938 589.304688 78.308594 C 594.320312 81.660156 599.246094 85.128906 604.089844 88.722656 C 608.933594 92.3125 613.683594 96.023438 618.34375 99.847656 C 623.007812 103.671875 627.570312 107.609375 632.039062 111.65625 C 636.503906 115.707031 640.871094 119.863281 645.132812 124.125 C 649.398438 128.390625 653.554688 132.753906 657.601562 137.222656 C 661.652344 141.691406 665.589844 146.253906 669.414062 150.914062 C 673.238281 155.574219 676.945312 160.328125 680.539062 165.167969 C 684.128906 170.011719 687.601562 174.941406 690.949219 179.953125 C 694.300781 184.964844 697.523438 190.058594 700.625 195.230469 C 703.722656 200.402344 706.695312 205.644531 709.535156 210.964844 C 712.378906 216.28125 715.089844 221.664062 717.667969 227.113281 C 720.246094 232.566406 722.6875 238.074219 724.996094 243.644531 C 727.300781 249.214844 729.472656 254.839844 731.503906 260.515625 C 733.535156 266.195312 735.425781 271.917969 737.175781 277.6875 C 738.925781 283.457031 740.53125 289.265625 741.996094 295.113281 C 743.460938 300.960938 744.78125 306.84375 745.960938 312.757812 C 747.136719 318.671875 748.164062 324.609375 749.050781 330.574219 C 749.933594 336.539062 750.671875 342.519531 751.265625 348.519531 C 751.855469 354.519531 752.296875 360.53125 752.59375 366.554688 C 752.890625 372.574219 753.039062 378.601562 753.039062 384.628906 Z M 753.039062 384.628906 " fill-opacity="1" fill-rule="nonzero"/></g><g clip-path="url(#ccb4bf2bc9)"><path fill="#ffffff" d="M 657.710938 258.09375 L 199.574219 258.09375 L 234.519531 300.949219 C 215.949219 333.039062 196.277344 366.445312 175.730469 401.5 C 152.871094 440.402344 131.554688 477.105469 111.554688 511.171875 L 272.871094 511.171875 L 331.882812 462.492188 L 397.378906 354.6875 L 328.808594 354.6875 L 273.863281 445.238281 C 264.082031 445.238281 254.082031 445.238281 244.191406 445.457031 C 234.410156 445.457031 224.410156 445.675781 214.410156 445.675781 C 217.378906 440.730469 220.234375 435.675781 223.203125 430.730469 C 239.027344 403.917969 255.179688 376.335938 271.554688 348.421875 L 256.390625 324.027344 L 301.664062 324.027344 C 314.300781 324.027344 327.160156 324.136719 339.796875 324.136719 L 339.90625 324.027344 L 496.058594 324.027344 L 414.742188 462.601562 L 449.796875 509.195312 L 451.226562 511.171875 C 467.269531 483.917969 482.875 457.105469 498.589844 430.402344 C 513.203125 405.566406 528.148438 380.402344 543.203125 354.6875 C 544.414062 352.601562 545.730469 350.402344 546.941406 348.3125 L 531.664062 324.027344 L 617.597656 324.027344 Z M 657.710938 258.09375 " fill-opacity="1" fill-rule="nonzero"/></g></svg>